<mxfile host="app.diagrams.net" agent="Mozilla/5.0 (Macintosh; Intel Mac OS X 10_15_7) AppleWebKit/537.36 (KHTML, like Gecko) Chrome/138.0.0.0 Safari/537.36" version="28.0.5">
  <diagram name="Page-1" id="4Ya3CVwk4Xb4hQ0CewIx">
    <mxGraphModel dx="1420" dy="945" grid="1" gridSize="10" guides="1" tooltips="1" connect="1" arrows="1" fold="1" page="1" pageScale="1" pageWidth="850" pageHeight="1100" math="0" shadow="0">
      <root>
        <mxCell id="0" />
        <mxCell id="1" parent="0" />
        <mxCell id="fEb0nm3sv9qReL1rJcZl-20" value="Accelerometer Value" style="rounded=0;whiteSpace=wrap;html=1;" parent="1" vertex="1">
          <mxGeometry x="140" y="720" width="120" height="60" as="geometry" />
        </mxCell>
        <mxCell id="fEb0nm3sv9qReL1rJcZl-21" style="edgeStyle=orthogonalEdgeStyle;rounded=0;orthogonalLoop=1;jettySize=auto;html=1;entryX=0;entryY=0.5;entryDx=0;entryDy=0;" parent="1" source="fEb0nm3sv9qReL1rJcZl-22" target="fEb0nm3sv9qReL1rJcZl-26" edge="1">
          <mxGeometry relative="1" as="geometry" />
        </mxCell>
        <mxCell id="fEb0nm3sv9qReL1rJcZl-22" value="Gyroscope Value" style="rounded=0;whiteSpace=wrap;html=1;" parent="1" vertex="1">
          <mxGeometry x="140" y="800" width="120" height="60" as="geometry" />
        </mxCell>
        <mxCell id="fEb0nm3sv9qReL1rJcZl-23" style="edgeStyle=orthogonalEdgeStyle;rounded=0;orthogonalLoop=1;jettySize=auto;html=1;entryX=0;entryY=0.5;entryDx=0;entryDy=0;" parent="1" source="fEb0nm3sv9qReL1rJcZl-24" target="fEb0nm3sv9qReL1rJcZl-32" edge="1">
          <mxGeometry relative="1" as="geometry" />
        </mxCell>
        <mxCell id="fEb0nm3sv9qReL1rJcZl-24" value="Get Orientation" style="rounded=0;whiteSpace=wrap;html=1;" parent="1" vertex="1">
          <mxGeometry x="500" y="720" width="120" height="60" as="geometry" />
        </mxCell>
        <mxCell id="fEb0nm3sv9qReL1rJcZl-25" style="edgeStyle=orthogonalEdgeStyle;rounded=0;orthogonalLoop=1;jettySize=auto;html=1;entryX=0.5;entryY=1;entryDx=0;entryDy=0;" parent="1" source="fEb0nm3sv9qReL1rJcZl-26" target="fEb0nm3sv9qReL1rJcZl-32" edge="1">
          <mxGeometry relative="1" as="geometry" />
        </mxCell>
        <mxCell id="fEb0nm3sv9qReL1rJcZl-26" value="Integrate Gyro" style="rounded=0;whiteSpace=wrap;html=1;" parent="1" vertex="1">
          <mxGeometry x="320" y="830" width="120" height="60" as="geometry" />
        </mxCell>
        <mxCell id="fEb0nm3sv9qReL1rJcZl-27" style="edgeStyle=orthogonalEdgeStyle;rounded=0;orthogonalLoop=1;jettySize=auto;html=1;entryX=0;entryY=0.5;entryDx=0;entryDy=0;" parent="1" source="fEb0nm3sv9qReL1rJcZl-29" target="fEb0nm3sv9qReL1rJcZl-24" edge="1">
          <mxGeometry relative="1" as="geometry" />
        </mxCell>
        <mxCell id="fEb0nm3sv9qReL1rJcZl-28" style="edgeStyle=orthogonalEdgeStyle;rounded=0;orthogonalLoop=1;jettySize=auto;html=1;entryX=0.5;entryY=0;entryDx=0;entryDy=0;" parent="1" source="fEb0nm3sv9qReL1rJcZl-29" target="fEb0nm3sv9qReL1rJcZl-26" edge="1">
          <mxGeometry relative="1" as="geometry" />
        </mxCell>
        <mxCell id="fEb0nm3sv9qReL1rJcZl-29" value="&lt;font style=&quot;font-size: 8px;&quot;&gt;Check Acceleration&lt;/font&gt;&lt;div&gt;&lt;font style=&quot;font-size: 8px;&quot;&gt;Magnitude&lt;/font&gt;&lt;/div&gt;" style="rhombus;whiteSpace=wrap;html=1;" parent="1" vertex="1">
          <mxGeometry x="320" y="720" width="120" height="60" as="geometry" />
        </mxCell>
        <mxCell id="fEb0nm3sv9qReL1rJcZl-30" style="edgeStyle=orthogonalEdgeStyle;rounded=0;orthogonalLoop=1;jettySize=auto;html=1;entryX=-0.027;entryY=0.494;entryDx=0;entryDy=0;entryPerimeter=0;" parent="1" source="fEb0nm3sv9qReL1rJcZl-20" target="fEb0nm3sv9qReL1rJcZl-29" edge="1">
          <mxGeometry relative="1" as="geometry" />
        </mxCell>
        <mxCell id="fEb0nm3sv9qReL1rJcZl-31" style="edgeStyle=orthogonalEdgeStyle;rounded=0;orthogonalLoop=1;jettySize=auto;html=1;entryX=0;entryY=0.5;entryDx=0;entryDy=0;" parent="1" source="fEb0nm3sv9qReL1rJcZl-32" target="fEb0nm3sv9qReL1rJcZl-34" edge="1">
          <mxGeometry relative="1" as="geometry" />
        </mxCell>
        <mxCell id="fEb0nm3sv9qReL1rJcZl-32" value="Remove Gravity&lt;div&gt;Component&lt;/div&gt;" style="rounded=0;whiteSpace=wrap;html=1;" parent="1" vertex="1">
          <mxGeometry x="680" y="720" width="120" height="60" as="geometry" />
        </mxCell>
        <mxCell id="fEb0nm3sv9qReL1rJcZl-33" style="edgeStyle=orthogonalEdgeStyle;rounded=0;orthogonalLoop=1;jettySize=auto;html=1;entryX=0.5;entryY=0;entryDx=0;entryDy=0;" parent="1" source="fEb0nm3sv9qReL1rJcZl-34" target="fEb0nm3sv9qReL1rJcZl-29" edge="1">
          <mxGeometry relative="1" as="geometry">
            <Array as="points">
              <mxPoint x="920" y="700" />
              <mxPoint x="380" y="700" />
            </Array>
          </mxGeometry>
        </mxCell>
        <mxCell id="fEb0nm3sv9qReL1rJcZl-38" style="edgeStyle=orthogonalEdgeStyle;rounded=0;orthogonalLoop=1;jettySize=auto;html=1;entryX=0.5;entryY=0;entryDx=0;entryDy=0;" parent="1" source="fEb0nm3sv9qReL1rJcZl-34" target="fEb0nm3sv9qReL1rJcZl-37" edge="1">
          <mxGeometry relative="1" as="geometry">
            <Array as="points">
              <mxPoint x="920" y="910" />
              <mxPoint x="380" y="910" />
            </Array>
          </mxGeometry>
        </mxCell>
        <mxCell id="fEb0nm3sv9qReL1rJcZl-34" value="Auto Calibrate" style="rounded=0;whiteSpace=wrap;html=1;" parent="1" vertex="1">
          <mxGeometry x="860" y="720" width="120" height="60" as="geometry" />
        </mxCell>
        <mxCell id="fEb0nm3sv9qReL1rJcZl-35" value="&lt;font style=&quot;font-size: 24px;&quot;&gt;Auto Calibration Flow Chart&lt;/font&gt;" style="text;html=1;align=center;verticalAlign=middle;whiteSpace=wrap;rounded=0;" parent="1" vertex="1">
          <mxGeometry x="140" y="210" width="310" height="30" as="geometry" />
        </mxCell>
        <mxCell id="fEb0nm3sv9qReL1rJcZl-36" value="&lt;span style=&quot;font-size: 24px;&quot;&gt;Punch Prediction Flow Chart&lt;/span&gt;" style="text;html=1;align=center;verticalAlign=middle;whiteSpace=wrap;rounded=0;" parent="1" vertex="1">
          <mxGeometry x="140" y="630" width="310" height="30" as="geometry" />
        </mxCell>
        <mxCell id="fEb0nm3sv9qReL1rJcZl-42" style="edgeStyle=orthogonalEdgeStyle;rounded=0;orthogonalLoop=1;jettySize=auto;html=1;" parent="1" source="fEb0nm3sv9qReL1rJcZl-37" target="fEb0nm3sv9qReL1rJcZl-39" edge="1">
          <mxGeometry relative="1" as="geometry" />
        </mxCell>
        <mxCell id="fEb0nm3sv9qReL1rJcZl-37" value="Get Data&lt;div&gt;(Acc x, y, z, Ori x, z)&lt;/div&gt;" style="rounded=0;whiteSpace=wrap;html=1;" parent="1" vertex="1">
          <mxGeometry x="320" y="940" width="120" height="60" as="geometry" />
        </mxCell>
        <mxCell id="fEb0nm3sv9qReL1rJcZl-44" style="edgeStyle=orthogonalEdgeStyle;rounded=0;orthogonalLoop=1;jettySize=auto;html=1;entryX=0;entryY=0.5;entryDx=0;entryDy=0;" parent="1" source="fEb0nm3sv9qReL1rJcZl-39" target="fEb0nm3sv9qReL1rJcZl-43" edge="1">
          <mxGeometry relative="1" as="geometry" />
        </mxCell>
        <mxCell id="fEb0nm3sv9qReL1rJcZl-39" value="Pre-Process Data" style="rounded=0;whiteSpace=wrap;html=1;" parent="1" vertex="1">
          <mxGeometry x="500" y="940" width="120" height="60" as="geometry" />
        </mxCell>
        <mxCell id="fEb0nm3sv9qReL1rJcZl-43" value="Predict Punch" style="rounded=0;whiteSpace=wrap;html=1;" parent="1" vertex="1">
          <mxGeometry x="680" y="940" width="120" height="60" as="geometry" />
        </mxCell>
        <mxCell id="fEb0nm3sv9qReL1rJcZl-45" value="Accelerometer Value" style="rounded=0;whiteSpace=wrap;html=1;" parent="1" vertex="1">
          <mxGeometry x="1275" y="290" width="120" height="60" as="geometry" />
        </mxCell>
        <mxCell id="fEb0nm3sv9qReL1rJcZl-46" style="edgeStyle=orthogonalEdgeStyle;rounded=0;orthogonalLoop=1;jettySize=auto;html=1;entryX=0;entryY=0.5;entryDx=0;entryDy=0;" parent="1" source="fEb0nm3sv9qReL1rJcZl-47" edge="1">
          <mxGeometry relative="1" as="geometry">
            <mxPoint x="1455" y="430" as="targetPoint" />
          </mxGeometry>
        </mxCell>
        <mxCell id="fEb0nm3sv9qReL1rJcZl-47" value="Gyroscope Value" style="rounded=0;whiteSpace=wrap;html=1;" parent="1" vertex="1">
          <mxGeometry x="1275" y="370" width="120" height="60" as="geometry" />
        </mxCell>
        <mxCell id="fEb0nm3sv9qReL1rJcZl-55" style="edgeStyle=orthogonalEdgeStyle;rounded=0;orthogonalLoop=1;jettySize=auto;html=1;entryX=-0.027;entryY=0.494;entryDx=0;entryDy=0;entryPerimeter=0;" parent="1" source="fEb0nm3sv9qReL1rJcZl-45" edge="1">
          <mxGeometry relative="1" as="geometry">
            <mxPoint x="1451.7600000000002" y="319.6400000000001" as="targetPoint" />
          </mxGeometry>
        </mxCell>
        <mxCell id="fEb0nm3sv9qReL1rJcZl-60" value="&lt;span style=&quot;font-size: 24px;&quot;&gt;Data Pre-Processing Flow Chart&lt;/span&gt;" style="text;html=1;align=center;verticalAlign=middle;whiteSpace=wrap;rounded=0;" parent="1" vertex="1">
          <mxGeometry x="1275" y="200" width="395" height="30" as="geometry" />
        </mxCell>
        <mxCell id="rtPLiMv88AhQwTLs8oYb-1" value="" style="group" vertex="1" connectable="0" parent="1">
          <mxGeometry x="140" y="280" width="840" height="190" as="geometry" />
        </mxCell>
        <mxCell id="fEb0nm3sv9qReL1rJcZl-1" value="Accelerometer Value" style="rounded=0;whiteSpace=wrap;html=1;" parent="rtPLiMv88AhQwTLs8oYb-1" vertex="1">
          <mxGeometry y="20" width="120" height="60" as="geometry" />
        </mxCell>
        <mxCell id="fEb0nm3sv9qReL1rJcZl-14" style="edgeStyle=orthogonalEdgeStyle;rounded=0;orthogonalLoop=1;jettySize=auto;html=1;entryX=0;entryY=0.5;entryDx=0;entryDy=0;" parent="rtPLiMv88AhQwTLs8oYb-1" source="fEb0nm3sv9qReL1rJcZl-2" target="fEb0nm3sv9qReL1rJcZl-4" edge="1">
          <mxGeometry relative="1" as="geometry" />
        </mxCell>
        <mxCell id="fEb0nm3sv9qReL1rJcZl-2" value="Gyroscope Value" style="rounded=0;whiteSpace=wrap;html=1;" parent="rtPLiMv88AhQwTLs8oYb-1" vertex="1">
          <mxGeometry y="100" width="120" height="60" as="geometry" />
        </mxCell>
        <mxCell id="fEb0nm3sv9qReL1rJcZl-11" style="edgeStyle=orthogonalEdgeStyle;rounded=0;orthogonalLoop=1;jettySize=auto;html=1;entryX=0;entryY=0.5;entryDx=0;entryDy=0;" parent="rtPLiMv88AhQwTLs8oYb-1" source="fEb0nm3sv9qReL1rJcZl-3" target="fEb0nm3sv9qReL1rJcZl-10" edge="1">
          <mxGeometry relative="1" as="geometry" />
        </mxCell>
        <mxCell id="fEb0nm3sv9qReL1rJcZl-3" value="Get Orientation" style="rounded=0;whiteSpace=wrap;html=1;" parent="rtPLiMv88AhQwTLs8oYb-1" vertex="1">
          <mxGeometry x="360" y="20" width="120" height="60" as="geometry" />
        </mxCell>
        <mxCell id="fEb0nm3sv9qReL1rJcZl-19" style="edgeStyle=orthogonalEdgeStyle;rounded=0;orthogonalLoop=1;jettySize=auto;html=1;entryX=0.5;entryY=1;entryDx=0;entryDy=0;" parent="rtPLiMv88AhQwTLs8oYb-1" source="fEb0nm3sv9qReL1rJcZl-4" target="fEb0nm3sv9qReL1rJcZl-10" edge="1">
          <mxGeometry relative="1" as="geometry" />
        </mxCell>
        <mxCell id="fEb0nm3sv9qReL1rJcZl-4" value="Integrate Gyro" style="rounded=0;whiteSpace=wrap;html=1;" parent="rtPLiMv88AhQwTLs8oYb-1" vertex="1">
          <mxGeometry x="180" y="130" width="120" height="60" as="geometry" />
        </mxCell>
        <mxCell id="fEb0nm3sv9qReL1rJcZl-9" style="edgeStyle=orthogonalEdgeStyle;rounded=0;orthogonalLoop=1;jettySize=auto;html=1;entryX=0;entryY=0.5;entryDx=0;entryDy=0;" parent="rtPLiMv88AhQwTLs8oYb-1" source="fEb0nm3sv9qReL1rJcZl-6" target="fEb0nm3sv9qReL1rJcZl-3" edge="1">
          <mxGeometry relative="1" as="geometry" />
        </mxCell>
        <mxCell id="fEb0nm3sv9qReL1rJcZl-12" style="edgeStyle=orthogonalEdgeStyle;rounded=0;orthogonalLoop=1;jettySize=auto;html=1;entryX=0.5;entryY=0;entryDx=0;entryDy=0;" parent="rtPLiMv88AhQwTLs8oYb-1" source="fEb0nm3sv9qReL1rJcZl-6" target="fEb0nm3sv9qReL1rJcZl-4" edge="1">
          <mxGeometry relative="1" as="geometry" />
        </mxCell>
        <mxCell id="fEb0nm3sv9qReL1rJcZl-6" value="&lt;font style=&quot;font-size: 8px;&quot;&gt;Check Acceleration&lt;/font&gt;&lt;div&gt;&lt;font style=&quot;font-size: 8px;&quot;&gt;Magnitude&lt;/font&gt;&lt;/div&gt;" style="rhombus;whiteSpace=wrap;html=1;" parent="rtPLiMv88AhQwTLs8oYb-1" vertex="1">
          <mxGeometry x="180" y="20" width="120" height="60" as="geometry" />
        </mxCell>
        <mxCell id="fEb0nm3sv9qReL1rJcZl-8" style="edgeStyle=orthogonalEdgeStyle;rounded=0;orthogonalLoop=1;jettySize=auto;html=1;entryX=-0.027;entryY=0.494;entryDx=0;entryDy=0;entryPerimeter=0;" parent="rtPLiMv88AhQwTLs8oYb-1" source="fEb0nm3sv9qReL1rJcZl-1" target="fEb0nm3sv9qReL1rJcZl-6" edge="1">
          <mxGeometry relative="1" as="geometry" />
        </mxCell>
        <mxCell id="fEb0nm3sv9qReL1rJcZl-16" style="edgeStyle=orthogonalEdgeStyle;rounded=0;orthogonalLoop=1;jettySize=auto;html=1;entryX=0;entryY=0.5;entryDx=0;entryDy=0;" parent="rtPLiMv88AhQwTLs8oYb-1" source="fEb0nm3sv9qReL1rJcZl-10" target="fEb0nm3sv9qReL1rJcZl-15" edge="1">
          <mxGeometry relative="1" as="geometry" />
        </mxCell>
        <mxCell id="fEb0nm3sv9qReL1rJcZl-10" value="Remove Gravity&lt;div&gt;Component&lt;/div&gt;" style="rounded=0;whiteSpace=wrap;html=1;" parent="rtPLiMv88AhQwTLs8oYb-1" vertex="1">
          <mxGeometry x="540" y="20" width="120" height="60" as="geometry" />
        </mxCell>
        <mxCell id="fEb0nm3sv9qReL1rJcZl-18" style="edgeStyle=orthogonalEdgeStyle;rounded=0;orthogonalLoop=1;jettySize=auto;html=1;entryX=0.5;entryY=0;entryDx=0;entryDy=0;" parent="rtPLiMv88AhQwTLs8oYb-1" source="fEb0nm3sv9qReL1rJcZl-15" target="fEb0nm3sv9qReL1rJcZl-6" edge="1">
          <mxGeometry relative="1" as="geometry">
            <Array as="points">
              <mxPoint x="780" />
              <mxPoint x="240" />
            </Array>
          </mxGeometry>
        </mxCell>
        <mxCell id="fEb0nm3sv9qReL1rJcZl-15" value="Auto Calibrate" style="rounded=0;whiteSpace=wrap;html=1;" parent="rtPLiMv88AhQwTLs8oYb-1" vertex="1">
          <mxGeometry x="720" y="20" width="120" height="60" as="geometry" />
        </mxCell>
        <mxCell id="rtPLiMv88AhQwTLs8oYb-23" value="" style="group" vertex="1" connectable="0" parent="1">
          <mxGeometry x="1275" y="640" width="585" height="330" as="geometry" />
        </mxCell>
        <mxCell id="rtPLiMv88AhQwTLs8oYb-8" style="edgeStyle=orthogonalEdgeStyle;rounded=0;orthogonalLoop=1;jettySize=auto;html=1;entryX=0.5;entryY=0;entryDx=0;entryDy=0;" edge="1" parent="rtPLiMv88AhQwTLs8oYb-23" source="rtPLiMv88AhQwTLs8oYb-2" target="rtPLiMv88AhQwTLs8oYb-7">
          <mxGeometry relative="1" as="geometry">
            <mxPoint x="60" y="110" as="targetPoint" />
          </mxGeometry>
        </mxCell>
        <mxCell id="rtPLiMv88AhQwTLs8oYb-2" value="Github Pages" style="rounded=0;whiteSpace=wrap;html=1;" vertex="1" parent="rtPLiMv88AhQwTLs8oYb-23">
          <mxGeometry width="120" height="60" as="geometry" />
        </mxCell>
        <mxCell id="rtPLiMv88AhQwTLs8oYb-6" style="edgeStyle=orthogonalEdgeStyle;rounded=0;orthogonalLoop=1;jettySize=auto;html=1;entryX=0;entryY=0.5;entryDx=0;entryDy=0;" edge="1" parent="rtPLiMv88AhQwTLs8oYb-23" source="rtPLiMv88AhQwTLs8oYb-3" target="rtPLiMv88AhQwTLs8oYb-4">
          <mxGeometry relative="1" as="geometry" />
        </mxCell>
        <mxCell id="rtPLiMv88AhQwTLs8oYb-10" value="Request Store" style="edgeLabel;html=1;align=center;verticalAlign=middle;resizable=0;points=[];" vertex="1" connectable="0" parent="rtPLiMv88AhQwTLs8oYb-6">
          <mxGeometry x="0.013" relative="1" as="geometry">
            <mxPoint as="offset" />
          </mxGeometry>
        </mxCell>
        <mxCell id="rtPLiMv88AhQwTLs8oYb-3" value="CloudFlare Workers" style="rounded=0;whiteSpace=wrap;html=1;" vertex="1" parent="rtPLiMv88AhQwTLs8oYb-23">
          <mxGeometry x="185" width="120" height="60" as="geometry" />
        </mxCell>
        <mxCell id="rtPLiMv88AhQwTLs8oYb-4" value="CloudFlare Storage" style="rounded=0;whiteSpace=wrap;html=1;" vertex="1" parent="rtPLiMv88AhQwTLs8oYb-23">
          <mxGeometry x="465" width="120" height="60" as="geometry" />
        </mxCell>
        <mxCell id="rtPLiMv88AhQwTLs8oYb-12" style="edgeStyle=orthogonalEdgeStyle;rounded=0;orthogonalLoop=1;jettySize=auto;html=1;entryX=0.5;entryY=0;entryDx=0;entryDy=0;" edge="1" parent="rtPLiMv88AhQwTLs8oYb-23" source="rtPLiMv88AhQwTLs8oYb-7" target="rtPLiMv88AhQwTLs8oYb-11">
          <mxGeometry relative="1" as="geometry" />
        </mxCell>
        <mxCell id="rtPLiMv88AhQwTLs8oYb-21" style="edgeStyle=orthogonalEdgeStyle;rounded=0;orthogonalLoop=1;jettySize=auto;html=1;entryX=0.5;entryY=1;entryDx=0;entryDy=0;" edge="1" parent="rtPLiMv88AhQwTLs8oYb-23" source="rtPLiMv88AhQwTLs8oYb-7" target="rtPLiMv88AhQwTLs8oYb-3">
          <mxGeometry relative="1" as="geometry">
            <Array as="points">
              <mxPoint x="245" y="140" />
            </Array>
          </mxGeometry>
        </mxCell>
        <mxCell id="rtPLiMv88AhQwTLs8oYb-22" value="Request Saving CSV" style="edgeLabel;html=1;align=center;verticalAlign=middle;resizable=0;points=[];" vertex="1" connectable="0" parent="rtPLiMv88AhQwTLs8oYb-21">
          <mxGeometry x="-0.1954" relative="1" as="geometry">
            <mxPoint as="offset" />
          </mxGeometry>
        </mxCell>
        <mxCell id="rtPLiMv88AhQwTLs8oYb-7" value="index.js" style="rounded=0;whiteSpace=wrap;html=1;" vertex="1" parent="rtPLiMv88AhQwTLs8oYb-23">
          <mxGeometry y="120" width="120" height="60" as="geometry" />
        </mxCell>
        <mxCell id="rtPLiMv88AhQwTLs8oYb-15" style="edgeStyle=orthogonalEdgeStyle;rounded=0;orthogonalLoop=1;jettySize=auto;html=1;entryX=0;entryY=0.5;entryDx=0;entryDy=0;" edge="1" parent="rtPLiMv88AhQwTLs8oYb-23" source="rtPLiMv88AhQwTLs8oYb-11" target="rtPLiMv88AhQwTLs8oYb-13">
          <mxGeometry relative="1" as="geometry" />
        </mxCell>
        <mxCell id="rtPLiMv88AhQwTLs8oYb-16" style="edgeStyle=orthogonalEdgeStyle;rounded=0;orthogonalLoop=1;jettySize=auto;html=1;" edge="1" parent="rtPLiMv88AhQwTLs8oYb-23" source="rtPLiMv88AhQwTLs8oYb-11" target="rtPLiMv88AhQwTLs8oYb-14">
          <mxGeometry relative="1" as="geometry" />
        </mxCell>
        <mxCell id="rtPLiMv88AhQwTLs8oYb-11" value="DeviceMotion API" style="rounded=0;whiteSpace=wrap;html=1;" vertex="1" parent="rtPLiMv88AhQwTLs8oYb-23">
          <mxGeometry y="230" width="120" height="60" as="geometry" />
        </mxCell>
        <mxCell id="rtPLiMv88AhQwTLs8oYb-18" style="edgeStyle=orthogonalEdgeStyle;rounded=0;orthogonalLoop=1;jettySize=auto;html=1;" edge="1" parent="rtPLiMv88AhQwTLs8oYb-23" source="rtPLiMv88AhQwTLs8oYb-13" target="rtPLiMv88AhQwTLs8oYb-17">
          <mxGeometry relative="1" as="geometry" />
        </mxCell>
        <mxCell id="rtPLiMv88AhQwTLs8oYb-13" value="Accelerometer Value" style="rounded=0;whiteSpace=wrap;html=1;" vertex="1" parent="rtPLiMv88AhQwTLs8oYb-23">
          <mxGeometry x="185" y="190" width="120" height="60" as="geometry" />
        </mxCell>
        <mxCell id="rtPLiMv88AhQwTLs8oYb-19" style="edgeStyle=orthogonalEdgeStyle;rounded=0;orthogonalLoop=1;jettySize=auto;html=1;" edge="1" parent="rtPLiMv88AhQwTLs8oYb-23" source="rtPLiMv88AhQwTLs8oYb-14" target="rtPLiMv88AhQwTLs8oYb-17">
          <mxGeometry relative="1" as="geometry" />
        </mxCell>
        <mxCell id="rtPLiMv88AhQwTLs8oYb-14" value="Gyroscope Value" style="rounded=0;whiteSpace=wrap;html=1;" vertex="1" parent="rtPLiMv88AhQwTLs8oYb-23">
          <mxGeometry x="185" y="270" width="120" height="60" as="geometry" />
        </mxCell>
        <mxCell id="rtPLiMv88AhQwTLs8oYb-20" style="edgeStyle=orthogonalEdgeStyle;rounded=0;orthogonalLoop=1;jettySize=auto;html=1;entryX=1;entryY=0.75;entryDx=0;entryDy=0;" edge="1" parent="rtPLiMv88AhQwTLs8oYb-23" source="rtPLiMv88AhQwTLs8oYb-17" target="rtPLiMv88AhQwTLs8oYb-7">
          <mxGeometry relative="1" as="geometry">
            <Array as="points">
              <mxPoint x="425" y="165" />
            </Array>
          </mxGeometry>
        </mxCell>
        <mxCell id="rtPLiMv88AhQwTLs8oYb-17" value="Auto Calibrate" style="rounded=0;whiteSpace=wrap;html=1;" vertex="1" parent="rtPLiMv88AhQwTLs8oYb-23">
          <mxGeometry x="365" y="230" width="120" height="60" as="geometry" />
        </mxCell>
        <mxCell id="rtPLiMv88AhQwTLs8oYb-24" value="" style="group" vertex="1" connectable="0" parent="1">
          <mxGeometry x="2150" y="250" width="585" height="330" as="geometry" />
        </mxCell>
        <mxCell id="rtPLiMv88AhQwTLs8oYb-25" style="edgeStyle=orthogonalEdgeStyle;rounded=0;orthogonalLoop=1;jettySize=auto;html=1;entryX=0.5;entryY=0;entryDx=0;entryDy=0;" edge="1" parent="rtPLiMv88AhQwTLs8oYb-24" source="rtPLiMv88AhQwTLs8oYb-26" target="rtPLiMv88AhQwTLs8oYb-34">
          <mxGeometry relative="1" as="geometry">
            <mxPoint x="60" y="110" as="targetPoint" />
          </mxGeometry>
        </mxCell>
        <mxCell id="rtPLiMv88AhQwTLs8oYb-26" value="Github Pages" style="rounded=0;whiteSpace=wrap;html=1;" vertex="1" parent="rtPLiMv88AhQwTLs8oYb-24">
          <mxGeometry width="120" height="60" as="geometry" />
        </mxCell>
        <mxCell id="rtPLiMv88AhQwTLs8oYb-27" style="edgeStyle=orthogonalEdgeStyle;rounded=0;orthogonalLoop=1;jettySize=auto;html=1;entryX=0;entryY=0.5;entryDx=0;entryDy=0;" edge="1" parent="rtPLiMv88AhQwTLs8oYb-24" source="rtPLiMv88AhQwTLs8oYb-29" target="rtPLiMv88AhQwTLs8oYb-30">
          <mxGeometry relative="1" as="geometry" />
        </mxCell>
        <mxCell id="rtPLiMv88AhQwTLs8oYb-28" value="Main Branch" style="edgeLabel;html=1;align=center;verticalAlign=middle;resizable=0;points=[];" vertex="1" connectable="0" parent="rtPLiMv88AhQwTLs8oYb-27">
          <mxGeometry x="0.013" relative="1" as="geometry">
            <mxPoint as="offset" />
          </mxGeometry>
        </mxCell>
        <mxCell id="rtPLiMv88AhQwTLs8oYb-29" value="Github User Content" style="rounded=0;whiteSpace=wrap;html=1;" vertex="1" parent="rtPLiMv88AhQwTLs8oYb-24">
          <mxGeometry x="185" width="120" height="60" as="geometry" />
        </mxCell>
        <mxCell id="rtPLiMv88AhQwTLs8oYb-58" style="edgeStyle=orthogonalEdgeStyle;rounded=0;orthogonalLoop=1;jettySize=auto;html=1;entryX=1;entryY=0.5;entryDx=0;entryDy=0;" edge="1" parent="rtPLiMv88AhQwTLs8oYb-24" source="rtPLiMv88AhQwTLs8oYb-30" target="rtPLiMv88AhQwTLs8oYb-41">
          <mxGeometry relative="1" as="geometry">
            <Array as="points">
              <mxPoint x="560" y="300" />
            </Array>
          </mxGeometry>
        </mxCell>
        <mxCell id="rtPLiMv88AhQwTLs8oYb-60" value="Load" style="edgeLabel;html=1;align=center;verticalAlign=middle;resizable=0;points=[];" vertex="1" connectable="0" parent="rtPLiMv88AhQwTLs8oYb-58">
          <mxGeometry x="0.6871" y="1" relative="1" as="geometry">
            <mxPoint as="offset" />
          </mxGeometry>
        </mxCell>
        <mxCell id="rtPLiMv88AhQwTLs8oYb-30" value="Models / Datas" style="rounded=0;whiteSpace=wrap;html=1;" vertex="1" parent="rtPLiMv88AhQwTLs8oYb-24">
          <mxGeometry x="465" width="120" height="60" as="geometry" />
        </mxCell>
        <mxCell id="rtPLiMv88AhQwTLs8oYb-31" style="edgeStyle=orthogonalEdgeStyle;rounded=0;orthogonalLoop=1;jettySize=auto;html=1;entryX=0.5;entryY=0;entryDx=0;entryDy=0;" edge="1" parent="rtPLiMv88AhQwTLs8oYb-24" source="rtPLiMv88AhQwTLs8oYb-34" target="rtPLiMv88AhQwTLs8oYb-37">
          <mxGeometry relative="1" as="geometry" />
        </mxCell>
        <mxCell id="rtPLiMv88AhQwTLs8oYb-32" style="edgeStyle=orthogonalEdgeStyle;rounded=0;orthogonalLoop=1;jettySize=auto;html=1;entryX=0.5;entryY=1;entryDx=0;entryDy=0;" edge="1" parent="rtPLiMv88AhQwTLs8oYb-24" source="rtPLiMv88AhQwTLs8oYb-34" target="rtPLiMv88AhQwTLs8oYb-29">
          <mxGeometry relative="1" as="geometry">
            <Array as="points">
              <mxPoint x="245" y="140" />
            </Array>
          </mxGeometry>
        </mxCell>
        <mxCell id="rtPLiMv88AhQwTLs8oYb-33" value="Fetch" style="edgeLabel;html=1;align=center;verticalAlign=middle;resizable=0;points=[];" vertex="1" connectable="0" parent="rtPLiMv88AhQwTLs8oYb-32">
          <mxGeometry x="-0.1954" relative="1" as="geometry">
            <mxPoint as="offset" />
          </mxGeometry>
        </mxCell>
        <mxCell id="rtPLiMv88AhQwTLs8oYb-34" value="index.js" style="rounded=0;whiteSpace=wrap;html=1;" vertex="1" parent="rtPLiMv88AhQwTLs8oYb-24">
          <mxGeometry y="120" width="120" height="60" as="geometry" />
        </mxCell>
        <mxCell id="rtPLiMv88AhQwTLs8oYb-35" style="edgeStyle=orthogonalEdgeStyle;rounded=0;orthogonalLoop=1;jettySize=auto;html=1;entryX=0;entryY=0.5;entryDx=0;entryDy=0;" edge="1" parent="rtPLiMv88AhQwTLs8oYb-24" source="rtPLiMv88AhQwTLs8oYb-37" target="rtPLiMv88AhQwTLs8oYb-39">
          <mxGeometry relative="1" as="geometry" />
        </mxCell>
        <mxCell id="rtPLiMv88AhQwTLs8oYb-37" value="ONNX Web API" style="rounded=0;whiteSpace=wrap;html=1;" vertex="1" parent="rtPLiMv88AhQwTLs8oYb-24">
          <mxGeometry y="230" width="120" height="60" as="geometry" />
        </mxCell>
        <mxCell id="rtPLiMv88AhQwTLs8oYb-54" style="edgeStyle=orthogonalEdgeStyle;rounded=0;orthogonalLoop=1;jettySize=auto;html=1;entryX=0.5;entryY=0;entryDx=0;entryDy=0;" edge="1" parent="rtPLiMv88AhQwTLs8oYb-24" source="rtPLiMv88AhQwTLs8oYb-39" target="rtPLiMv88AhQwTLs8oYb-41">
          <mxGeometry relative="1" as="geometry" />
        </mxCell>
        <mxCell id="rtPLiMv88AhQwTLs8oYb-57" value="Predict" style="edgeLabel;html=1;align=center;verticalAlign=middle;resizable=0;points=[];" vertex="1" connectable="0" parent="rtPLiMv88AhQwTLs8oYb-54">
          <mxGeometry x="-0.3487" relative="1" as="geometry">
            <mxPoint as="offset" />
          </mxGeometry>
        </mxCell>
        <mxCell id="rtPLiMv88AhQwTLs8oYb-39" value="PUNCH! Model" style="rounded=0;whiteSpace=wrap;html=1;" vertex="1" parent="rtPLiMv88AhQwTLs8oYb-24">
          <mxGeometry x="185" y="190" width="120" height="60" as="geometry" />
        </mxCell>
        <mxCell id="rtPLiMv88AhQwTLs8oYb-62" style="edgeStyle=orthogonalEdgeStyle;rounded=0;orthogonalLoop=1;jettySize=auto;html=1;entryX=0.5;entryY=1;entryDx=0;entryDy=0;" edge="1" parent="rtPLiMv88AhQwTLs8oYb-24" source="rtPLiMv88AhQwTLs8oYb-41" target="rtPLiMv88AhQwTLs8oYb-39">
          <mxGeometry relative="1" as="geometry" />
        </mxCell>
        <mxCell id="rtPLiMv88AhQwTLs8oYb-63" value="Update&lt;div&gt;Hidden State&lt;/div&gt;" style="edgeLabel;html=1;align=center;verticalAlign=middle;resizable=0;points=[];" vertex="1" connectable="0" parent="rtPLiMv88AhQwTLs8oYb-62">
          <mxGeometry x="-0.325" relative="1" as="geometry">
            <mxPoint as="offset" />
          </mxGeometry>
        </mxCell>
        <mxCell id="rtPLiMv88AhQwTLs8oYb-41" value="Test Data" style="rounded=0;whiteSpace=wrap;html=1;" vertex="1" parent="rtPLiMv88AhQwTLs8oYb-24">
          <mxGeometry x="340" y="270" width="120" height="60" as="geometry" />
        </mxCell>
        <mxCell id="rtPLiMv88AhQwTLs8oYb-47" style="edgeStyle=orthogonalEdgeStyle;rounded=0;orthogonalLoop=1;jettySize=auto;html=1;entryX=0.476;entryY=0.017;entryDx=0;entryDy=0;entryPerimeter=0;" edge="1" parent="rtPLiMv88AhQwTLs8oYb-24" source="rtPLiMv88AhQwTLs8oYb-30" target="rtPLiMv88AhQwTLs8oYb-39">
          <mxGeometry relative="1" as="geometry">
            <Array as="points">
              <mxPoint x="490" y="160" />
              <mxPoint x="242" y="160" />
            </Array>
          </mxGeometry>
        </mxCell>
        <mxCell id="rtPLiMv88AhQwTLs8oYb-61" value="Load" style="edgeLabel;html=1;align=center;verticalAlign=middle;resizable=0;points=[];" vertex="1" connectable="0" parent="rtPLiMv88AhQwTLs8oYb-47">
          <mxGeometry x="0.157" relative="1" as="geometry">
            <mxPoint as="offset" />
          </mxGeometry>
        </mxCell>
      </root>
    </mxGraphModel>
  </diagram>
</mxfile>
